<?xml version="1.0" standalone="no"?>
<!DOCTYPE svg PUBLIC "-//W3C//DTD SVG 20010904//EN"
 "http://www.w3.org/TR/2001/REC-SVG-20010904/DTD/svg10.dtd">
<svg version="1.0" xmlns="http://www.w3.org/2000/svg"
 width="282.000000pt" height="249.000000pt" viewBox="0 0 282.000000 249.000000"
 preserveAspectRatio="xMidYMid meet">

<g transform="translate(0.000000,249.000000) scale(0.100000,-0.100000)"
fill="#000000" stroke="none">
<path d="M956 2364 c-76 -15 -188 -63 -225 -97 -13 -12 -30 -37 -38 -55 -8
-19 -25 -37 -41 -43 -126 -48 -177 -202 -138 -414 26 -138 46 -205 63 -205 8
0 29 -12 47 -26 22 -19 32 -23 33 -13 1 8 5 57 8 109 l7 95 49 33 c36 23 51
41 56 62 5 28 7 29 19 13 10 -15 9 -23 -9 -52 -11 -19 -15 -31 -9 -27 17 11
15 -4 -5 -26 -25 -28 -29 -117 -7 -163 23 -49 94 -95 143 -94 l36 1 -43 9
c-23 4 -56 18 -73 30 -34 24 -69 89 -69 129 0 61 68 150 114 150 9 0 16 4 16
9 0 5 20 5 47 0 53 -10 106 -47 128 -89 20 -38 19 -114 -1 -145 -9 -14 -12
-25 -6 -25 14 0 42 75 42 115 0 40 20 55 72 55 38 0 58 -15 58 -42 0 -28 71
-95 117 -108 55 -17 103 -6 157 35 43 33 44 33 50 12 3 -12 6 -57 6 -99 0
-102 -34 -212 -86 -276 -31 -38 -34 -44 -14 -31 44 28 85 110 104 209 16 78
16 102 6 175 -11 76 -10 89 5 122 15 31 17 54 12 148 -11 180 -49 282 -144
385 -116 126 -289 174 -487 134z m13 -441 c13 -53 41 -90 61 -78 5 3 8 10 5
15 -3 5 0 12 6 15 6 4 8 19 5 34 -5 22 -3 20 15 -11 l22 -37 113 3 112 3 -29
-28 c-16 -16 -29 -32 -29 -36 0 -3 13 6 29 21 34 33 88 47 136 36 80 -18 118
-69 119 -162 1 -70 -22 -105 -85 -131 -38 -16 -51 -17 -87 -8 -62 17 -105 60
-122 120 -7 28 -16 48 -19 43 -3 -4 -25 -8 -48 -8 -26 0 -49 -6 -61 -17 -19
-18 -20 -17 -41 16 -25 41 -60 66 -116 82 l-40 13 45 9 c45 9 45 9 14 17 -26
6 -30 11 -30 39 1 18 -2 59 -6 92 -7 54 -6 57 6 35 7 -14 19 -48 25 -77z"/>
<path d="M1237 1783 c-4 -3 -7 -16 -6 -27 0 -19 1 -19 10 3 10 24 8 36 -4 24z"/>
<path d="M1313 1754 c-18 -9 -39 -27 -48 -40 -14 -22 -14 -26 0 -40 8 -8 15
-20 15 -26 0 -16 99 -3 118 16 14 13 14 21 5 47 -13 33 -10 34 41 13 14 -5 17
-4 11 5 -9 16 -67 41 -92 41 -10 0 -32 -8 -50 -16z m5 -45 c-2 -6 -8 -10 -13
-10 -5 0 -11 4 -13 10 -2 6 4 11 13 11 9 0 15 -5 13 -11z"/>
<path d="M900 1688 c-35 -10 -90 -53 -90 -72 0 -5 10 0 23 12 29 27 37 28 30
3 -3 -10 1 -29 7 -41 11 -20 18 -22 63 -17 54 5 78 25 70 57 -6 23 7 26 26 8
11 -11 13 -10 9 2 -5 16 -50 45 -83 53 -11 3 -36 1 -55 -5z m15 -47 c7 -12
-12 -24 -25 -16 -11 7 -4 25 10 25 5 0 11 -4 15 -9z"/>
<path d="M1005 1490 c-3 -5 -15 -10 -25 -10 -10 0 -22 -5 -26 -11 -4 -8 1 -9
17 -4 30 9 68 35 52 35 -7 0 -15 -4 -18 -10z"/>
<path d="M2116 1487 c3 -10 9 -15 12 -12 3 3 0 11 -7 18 -10 9 -11 8 -5 -6z"/>
<path d="M590 1486 c0 -2 7 -7 16 -10 8 -3 12 -2 9 4 -6 10 -25 14 -25 6z"/>
<path d="M1226 1474 c-11 -8 -36 -14 -55 -15 -33 0 -34 -1 -13 -10 28 -11 66
-3 83 17 17 20 8 25 -15 8z"/>
<path d="M2285 1419 c-22 -5 -63 -8 -91 -7 -27 1 -56 -2 -62 -6 -7 -4 -12 -30
-12 -58 l0 -51 110 7 c145 8 144 8 137 67 -4 32 -2 49 6 53 20 8 -45 4 -88 -5z"/>
<path d="M1315 1413 c-11 -2 -49 -13 -85 -23 -36 -11 -104 -22 -152 -26 -98
-6 -107 -16 -61 -58 82 -76 281 -38 333 64 11 22 20 42 20 45 0 6 -24 5 -55
-2z m3 -38 c-6 -6 -154 -35 -171 -34 -7 1 17 9 53 19 63 17 129 25 118 15z"/>
<path d="M706 1394 c-5 -13 -9 -14 -20 -5 -12 10 -12 6 0 -35 7 -25 11 -50 8
-55 -3 -5 -1 -9 4 -9 5 0 45 -35 88 -78 51 -50 97 -85 127 -98 46 -18 48 -20
45 -57 -3 -36 -7 -40 -43 -53 -43 -14 -67 -39 -63 -64 5 -24 99 -33 224 -20
203 21 270 50 385 167 l74 75 -43 -6 c-24 -4 -49 -7 -55 -9 -7 -1 -11 4 -9 11
1 8 -12 3 -30 -11 -58 -44 -131 -62 -253 -62 -104 0 -114 2 -182 34 -86 40
-130 91 -186 214 -35 75 -58 95 -71 61z"/>
<path d="M2102 1060 c0 -19 2 -27 5 -17 2 9 2 25 0 35 -3 9 -5 1 -5 -18z"/>
<path d="M2122 855 c0 -16 4 -41 8 -55 l8 -25 0 25 c0 14 -4 39 -8 55 l-8 30
0 -30z"/>
<path d="M1640 773 c0 -10 9 -31 20 -48 11 -16 20 -39 20 -50 1 -19 2 -19 20
3 l20 24 66 -37 c52 -28 233 -162 264 -195 25 -26 134 -100 193 -130 56 -28
148 -34 169 -11 11 12 11 13 -1 6 -35 -20 -147 3 -183 37 -7 7 -33 27 -58 43
-25 17 -49 33 -55 38 -36 27 -154 122 -217 174 -41 34 -104 76 -139 94 -35 18
-76 41 -91 51 -27 18 -28 19 -28 1z"/>
<path d="M2140 745 c0 -14 4 -25 9 -25 4 0 6 11 3 25 -2 14 -6 25 -8 25 -2 0
-4 -11 -4 -25z"/>
<path d="M2161 664 c0 -11 3 -14 6 -6 3 7 2 16 -1 19 -3 4 -6 -2 -5 -13z"/>
<path d="M1671 634 c0 -11 3 -14 6 -6 3 7 2 16 -1 19 -3 4 -6 -2 -5 -13z"/>
<path d="M905 385 c-15 -48 -15 -50 5 -26 11 13 20 27 20 32 0 15 -20 10 -25
-6z"/>
</g>
</svg>
